HIERARCHY
ROOT hip
{
  OFFSET 0 0 0
  CHANNELS 6 Xposition Yposition Zposition Zrotation Yrotation Xrotation
  JOINT abdomen
  {
    OFFSET 0 20.6881 -0.73152
    CHANNELS 3 Zrotation Xrotation Yrotation
    JOINT chest
    {
      OFFSET 0 11.7043 -0.48768
      CHANNELS 3 Zrotation Xrotation Yrotation
      JOINT neck
      {
        OFFSET 0 22.1894 -2.19456
        CHANNELS 3 Zrotation Xrotation Yrotation
        JOINT head
        {
          OFFSET -0.24384 7.07133 1.2192
          CHANNELS 3 Zrotation Xrotation Yrotation
          JOINT leftEye
          {
            OFFSET 4.14528 8.04674 8.04672
            CHANNELS 3 Zrotation Xrotation Yrotation
            End Site
            {
              OFFSET 1 0 0
            }
          }
          JOINT rightEye
          {
            OFFSET -3.6576 8.04674 8.04672
            CHANNELS 3 Zrotation Xrotation Yrotation
            End Site
            {
              OFFSET 1 0 0
            }
          }
        }
      }
      JOINT rCollar
      {
        OFFSET -2.68224 19.2634 -4.8768
        CHANNELS 3 Zrotation Xrotation Yrotation
        JOINT rShldr
        {
          OFFSET -8.77824 -1.95073 1.46304
          CHANNELS 3 Zrotation Xrotation Yrotation
          JOINT rForeArm
          {
            OFFSET -28.1742 -1.7115 0.48768
            CHANNELS 3 Zrotation Xrotation Yrotation
            JOINT rHand
            {
              OFFSET -22.5879 0.773209 7.07136
              CHANNELS 3 Zrotation Xrotation Yrotation
              JOINT rThumb1
              {
                OFFSET -1.2192 -0.487915 3.41376
                CHANNELS 3 Zrotation Xrotation Yrotation
                JOINT rThumb2
                {
                  OFFSET -3.37035 -0.52449 3.41376
                  CHANNELS 3 Zrotation Xrotation Yrotation
                  End Site
                  {
                    OFFSET -1.78271 -1.18214 1.43049
                  }
                }
              }
              JOINT rIndex1
              {
                OFFSET -7.75947 0.938293 5.60832
                CHANNELS 3 Zrotation Xrotation Yrotation
                JOINT rIndex2
                {
                  OFFSET -2.54057 -0.884171 1.56538
                  CHANNELS 3 Zrotation Xrotation Yrotation
                  End Site
                  {
                    OFFSET -1.62519 -0.234802 1.16502
                  }
                }
              }
              JOINT rMid1
              {
                OFFSET -8.24714 1.18213 3.41376
                CHANNELS 3 Zrotation Xrotation Yrotation
                JOINT rMid2
                {
                  OFFSET -3.10165 -0.590103 1.0647
                  CHANNELS 3 Zrotation Xrotation Yrotation
                  End Site
                  {
                    OFFSET -2.48547 -0.328903 0.83742
                  }
                }
              }
              JOINT rRing1
              {
                OFFSET -8.82822 0.546677 1.51678
                CHANNELS 3 Zrotation Xrotation Yrotation
                JOINT rRing2
                {
                  OFFSET -2.60934 -0.819778 -0.0198488
                  CHANNELS 3 Zrotation Xrotation Yrotation
                  End Site
                  {
                    OFFSET -2.33842 -0.294052 0.168128
                  }
                }
              }
              JOINT rPinky1
              {
                OFFSET -8.27202 -0.0477905 -0.4584
                CHANNELS 3 Zrotation Xrotation Yrotation
                JOINT rPinky2
                {
                  OFFSET -1.82734 -0.647385 -0.700984
                  CHANNELS 3 Zrotation Xrotation Yrotation
                  End Site
                  {
                    OFFSET -1.69225 -0.51767 -0.607171
                  }
                }
              }
            }
          }
        }
      }
      JOINT lCollar
      {
        OFFSET 2.68224 19.2634 -4.8768
        CHANNELS 3 Zrotation Xrotation Yrotation
        JOINT lShldr
        {
          OFFSET 8.77824 -1.95073 1.46304
          CHANNELS 3 Zrotation Xrotation Yrotation
          JOINT lForeArm
          {
            OFFSET 28.1742 -1.7115 0.48768
            CHANNELS 3 Zrotation Xrotation Yrotation
            JOINT lHand
            {
              OFFSET 22.5879 0.773209 7.07136
              CHANNELS 3 Zrotation Xrotation Yrotation
              JOINT lThumb1
              {
                OFFSET 1.2192 -0.487915 3.41376
                CHANNELS 3 Zrotation Xrotation Yrotation
                JOINT lThumb2
                {
                  OFFSET 3.37035 -0.52449 3.41376
                  CHANNELS 3 Zrotation Xrotation Yrotation
                  End Site
                  {
                    OFFSET 1.78271 -1.18214 1.43049
                  }
                }
              }
              JOINT lIndex1
              {
                OFFSET 7.75947 0.938293 5.60832
                CHANNELS 3 Zrotation Xrotation Yrotation
                JOINT lIndex2
                {
                  OFFSET 2.54057 -0.884171 1.56538
                  CHANNELS 3 Zrotation Xrotation Yrotation
                  End Site
                  {
                    OFFSET 1.62519 -0.234802 1.16502
                  }
                }
              }
              JOINT lMid1
              {
                OFFSET 8.24714 1.18213 3.41376
                CHANNELS 3 Zrotation Xrotation Yrotation
                JOINT lMid2
                {
                  OFFSET 3.10165 -0.590103 1.0647
                  CHANNELS 3 Zrotation Xrotation Yrotation
                  End Site
                  {
                    OFFSET 2.48547 -0.328903 0.83742
                  }
                }
              }
              JOINT lRing1
              {
                OFFSET 8.82822 0.546677 1.51678
                CHANNELS 3 Zrotation Xrotation Yrotation
                JOINT lRing2
                {
                  OFFSET 2.60934 -0.819778 -0.0198488
                  CHANNELS 3 Zrotation Xrotation Yrotation
                  End Site
                  {
                    OFFSET 2.33842 -0.294052 0.168128
                  }
                }
              }
              JOINT lPinky1
              {
                OFFSET 8.27202 -0.0477905 -0.4584
                CHANNELS 3 Zrotation Xrotation Yrotation
                JOINT lPinky2
                {
                  OFFSET 1.82734 -0.647385 -0.700984
                  CHANNELS 3 Zrotation Xrotation Yrotation
                  End Site
                  {
                    OFFSET 1.69225 -0.51767 -0.607171
                  }
                }
              }
            }
          }
        }
      }
    }
  }
  JOINT rButtock
  {
    OFFSET -8.77824 4.35084 1.2192
    CHANNELS 3 Zrotation Xrotation Yrotation
    JOINT rThigh
    {
      OFFSET 0 -1.70687 -2.19456
      CHANNELS 3 Zrotation Xrotation Yrotation
      JOINT rShin
      {
        OFFSET 0 -36.8199 0.73152
        CHANNELS 3 Zrotation Xrotation Yrotation
        JOINT rFoot
        {
          OFFSET 0.73152 -45.1104 -5.12064
          CHANNELS 3 Zrotation Xrotation Yrotation
          End Site
          {
            OFFSET -1.1221 -3.69964 12.103
          }
        }
      }
    }
  }
  JOINT lButtock
  {
    OFFSET 8.77824 4.35084 1.2192
    CHANNELS 3 Zrotation Xrotation Yrotation
    JOINT lThigh
    {
      OFFSET 0 -1.70687 -2.19456
      CHANNELS 3 Zrotation Xrotation Yrotation
      JOINT lShin
      {
        OFFSET 0 -36.8199 0.73152
        CHANNELS 3 Zrotation Xrotation Yrotation
        JOINT lFoot
        {
          OFFSET -0.73152 -45.1104 -5.12064
          CHANNELS 3 Zrotation Xrotation Yrotation
          End Site
          {
            OFFSET 1.1221 -3.69964 12.103
          }
        }
      }
    }
  }
}
MOTION
Frames:	6
Frame Time:	0.03333
0.0 0.0 0.0 0.0 0.0 0.0 0.0 0.0 0.0 0.0 0.0 0.0 0.0 0.0 0.0 0.0 0.0 0.0 0.0 0.0 0.0 0.0 0.0 0.0 0.0 0.0 0.0 0.0 0.0 0.0 0.0 0.0 0.0 0.0 0.0 0.0 0.0 0.0 0.0 0.0 0.0 0.0 0.0 0.0 0.0 0.0 0.0 0.0 0.0 0.0 0.0 0.0 0.0 0.0 0.0 0.0 0.0 0.0 0.0 0.0 0.0 0.0 0.0 0.0 0.0 0.0 0.0 0.0 0.0 0.0 0.0 0.0 0.0 0.0 0.0 0.0 0.0 0.0 0.0 0.0 0.0 0.0 0.0 0.0 0.0 0.0 0.0 0.0 0.0 0.0 0.0 0.0 0.0 0.0 0.0 0.0 0.0 0.0 0.0 0.0 0.0 0.0 0.0 0.0 0.0 0.0 0.0 0.0 0.0 0.0 0.0 0.0 0.0 0.0 0.0 0.0 0.0 0.0 0.0 0.0 0.0 0.0 0.0 0.0 0.0 0.0 0.0 0.0 0.0 0.0 0.0 0.0
1.0555999999999999 68.2967 1.1755 3.095842 9.630914 4.967354 -0.850627 6.094923 0.0 -6.72099 -16.478346 4.116684 6.528801 15.916769 92.805588 -37.77366 18.554625 -132.10977 -0.001297 -0.0 0.005089 0.002827 -0.0 -0.000367 3.276294 -26.848152 -5.25897 -169.309606 20.194954 127.415348 4.085107 -12.267357 -93.385373 -152.568907 22.873696 133.673765 -0.442494 0.434908 0.069394 53.52077 -73.986674 -10.221867 -173.762508 -52.87265 119.826314 -0.273779 25.624977 -2.06578 -0.57119 1.648247 0.323026 -172.063622 -31.34593 144.10803 -145.099154 -1.522671 -178.648948 -152.245395 -25.058069 -175.33381 17.606153 61.627697 12.864913 -147.925989 10.37381 -142.76824 -4.239235 -44.7428 8.647323 23.310812 14.506482 -6.046221 32.241541 28.189226 -33.270134 -7.54794 -15.958084 -3.356392 173.088552 -10.765264 -89.918687 147.184011 6.955388 -76.186018 124.893391 21.791243 -105.251279 -0.029729 13.238687 5.346526 169.091008 -33.247173 -145.374862 -3.066402 0.164512 -0.359959 145.121549 1.974703 179.748325 155.682593 1.22666 179.385167 -12.988169 44.344522 -10.75941 25.139994 -41.07681 25.176116 -0.00057 0.000328 0.000733 -34.229776 -51.831068 -28.564051 110.087608 78.040335 163.575633 8.918764 56.835914 66.402491 -179.985108 75.749594 -0.010189 -163.947344 52.107857 -12.597344 -30.771308 54.13146 130.79183 176.065222 -20.560915 70.303743
1.4329 68.2445 2.2586 4.217766 8.685834 5.268536 1.41537 3.298165 -101.180314 17.584532 -7.711638 108.804794 -0.389923 6.613108 32.242003 -28.162327 -16.570893 -80.948664 -0.000504 -0.0 0.00121 0.005212 0.0 0.000206 -44.913751 -86.288232 -66.521923 63.444183 -20.391134 52.261278 159.592329 -70.292063 55.289597 -151.362241 26.509384 131.500633 -166.63124 -4.304845 89.771809 126.893806 -54.75856 88.626603 -43.648466 38.803451 34.060136 -1.690806 12.362676 0.298268 173.121922 -66.297645 137.61244 2.487194 1.609426 0.478556 -145.121153 1.121157 -179.481047 -151.187387 -31.750293 -173.877378 5.663777 16.871769 5.09026 -76.227558 -54.813874 -75.573935 159.221471 -48.724942 -170.567665 -54.399171 -42.700389 -55.935504 69.927467 -53.270537 111.091421 -81.036767 -68.733457 -67.13852 -178.339977 -19.018906 -88.988922 176.118952 -12.562081 -98.263454 160.101132 -33.161695 -122.701688 61.252734 57.328518 -46.737902 36.036204 51.723175 -29.832075 7.189356 26.20236 -6.141771 -0.000214 0.063586 -0.021275 54.477783 -86.701786 75.983172 149.116962 25.573156 145.199374 21.560059 -36.786573 22.869479 -0.000852 -0.00046 0.001095 -39.243119 -55.935022 -127.114546 -93.110501 5.634516 0.425686 -5.009622 -12.376421 89.71444 179.805859 75.748942 0.149632 -164.346165 51.944584 -150.382378 -31.582971 -57.474376 -103.352846 -179.572041 0.577504 83.618154
1.5009 68.2071 3.5744 4.678704 9.109915 5.805331 1.225659 1.134071 -135.636879 19.311049 2.606262 141.887934 5.192591 11.588498 77.576295 -40.621061 12.983328 -115.896121 -0.000659 -0.0 0.002405 -0.000659 -0.0 0.002405 -158.897169 -36.946368 168.197251 66.194035 -13.473342 15.479065 34.421451 -72.505268 -78.067397 -154.374784 24.50386 133.084485 -10.204226 9.661873 2.404575 -74.789658 20.975277 70.469929 -46.20912 39.652018 36.319024 -3.621282 14.853026 0.939956 -161.153921 -8.160834 143.464126 29.962332 -60.066856 7.10484 -0.015374 -1.323412 -0.414163 -155.675196 -54.773261 179.065481 -25.535667 -38.089241 -24.595365 -145.589193 8.387923 -142.57666 48.788119 -86.434853 70.451016 0.151896 -27.554967 -31.366056 16.388682 80.209435 -46.677441 6.311833 25.699827 -1.312527 93.743342 37.963268 -53.548677 -36.713943 -35.54874 -23.599041 162.920368 -37.929431 -122.6279 166.059674 -28.988544 -118.531013 167.374402 -28.008626 -145.269138 11.914445 33.629737 -9.65941 145.118881 0.267954 179.21205 -11.906616 29.602404 5.641171 135.820384 -11.891445 133.184441 -1.66351 -2.767667 2.755551 -0.000439 0.000513 0.000564 -45.706464 -57.368465 156.757131 -73.045235 -65.429971 47.924376 147.375932 -19.540821 -43.784718 -0.000439 0.000513 0.000564 7.610179 -19.75514 21.568515 -27.550892 53.457866 -83.360329 98.32535 -34.995845 161.538086
1.2565 68.3675 5.0629 4.839188 10.356623 6.425982 0.00541 4.064523 -0.0 -11.544236 -19.597321 3.737406 -14.393582 17.112743 -87.533287 44.063423 -6.460807 45.964013 -0.000862 -0.0 0.003444 -0.000862 -0.0 0.003444 4.237619 -44.742748 -8.64956 -101.60879 32.428093 78.649338 134.720546 -53.58545 -141.851564 -17.620126 2.059202 -0.801017 -172.746469 -10.423342 89.930148 178.72788 -17.375613 95.353959 174.384941 -63.060584 113.274219 -85.036496 54.773182 70.554131 -160.827155 -7.141553 143.316692 18.262493 -42.034037 0.334168 -145.100031 -1.521981 -178.64974 -150.21142 -35.127248 -173.024691 7.22143 22.274097 6.418618 -2.35428 -11.034233 -3.935743 13.744787 42.431125 -15.570771 82.906339 -64.507247 96.410345 -168.791627 -21.156262 -112.722182 -170.047209 -12.349067 -145.144016 17.201293 15.60035 -4.930434 128.176688 -28.001048 -106.681859 152.10457 -18.556882 -121.36748 -179.784936 -47.184181 -113.517003 -0.540915 -1.59 0.294678 -52.984007 -73.676584 -26.306885 -0.003206 0.876354 -0.276005 -10.972358 -12.23932 1.536125 156.519169 54.249893 150.179234 155.937333 36.155268 146.239725 179.998644 75.748715 0.001399 157.558624 9.86324 -112.526102 -72.436707 -23.045288 2.389687 144.102317 20.348146 -65.138549 -0.000166 -0.001866 0.000213 7.342717 -21.376134 -160.529545 7.615911 -59.582816 -64.663217 -173.257308 25.745649 67.309204
1.0147 68.7178 6.6076 4.495125 11.467013 6.712702 0.430378 2.89058 0.0 -11.332416 -19.601968 3.56081 -12.772623 20.312609 -111.432414 49.114391 9.695178 63.878726 -0.002176 0.0 -7.8e-05 0.001697 -0.0 -0.004279 -157.643251 -66.710476 175.898441 -120.304487 -3.609257 131.002214 -12.913159 66.403033 -105.562293 -167.629526 4.177055 141.398125 4.416854 -4.400639 -0.512526 -126.931961 -18.314539 114.064434 10.210655 -18.050897 -4.564038 -64.494147 48.971942 51.288532 0.047649 -0.138631 -0.026153 -34.366711 55.163631 28.967546 -0.015646 -1.322981 -0.41697 -149.876322 38.864093 164.838964 -146.225798 15.470242 -142.748074 -150.306057 19.802998 -143.418396 157.796711 -22.115577 -165.467066 75.970657 49.126885 -100.99077 91.074302 50.530817 -98.260545 -14.569784 -32.915405 -7.37123 68.482148 37.953134 -35.660284 -109.956462 -56.924894 -42.018537 138.494483 4.897026 -114.865387 168.141726 -24.270803 -118.544191 36.036811 51.722144 -29.834491 -4.446188 -3.102423 0.316525 0.00017 -0.018543 0.005612 154.298909 -64.498041 178.426336 -34.173019 84.16746 -4.376369 -41.375782 80.669428 5.911948 -179.844876 75.750488 -0.119563 156.808524 13.480716 94.187285 56.069344 -11.135486 6.71217 -110.627818 -41.369639 158.712826 0.003927 -0.000885 0.001963 6.792553 -18.057441 2.24327 -23.114015 43.900004 63.595032 -93.543075 -6.280302 -14.552083
